<?xml version="1.0" encoding="utf-8"?>
<!-- Generator: Adobe Illustrator 25.2.1, SVG Export Plug-In . SVG Version: 6.00 Build 0)  -->
<svg version="1.0" id="Layer_1" xmlns="http://www.w3.org/2000/svg" xmlns:xlink="http://www.w3.org/1999/xlink" x="0px" y="0px"
	 viewBox="0 0 5647.007 974.767" enable-background="new 0 0 5647.007 974.767" xml:space="preserve">
<g>
	<path fill="#676767" d="M2832.802,393.855c-4.031,0-7.374,3.343-7.374,7.374v79.937h-79.937c-4.031,0-7.374,3.245-7.374,7.374
		c0,4.031,3.343,7.374,7.374,7.374h79.937v79.937c0,4.031,3.245,7.374,7.374,7.374c2.065,0,3.933-0.885,5.211-2.163
		s2.163-3.146,2.163-5.211v-79.937h79.937c2.065,0,3.933-0.787,5.211-2.163c1.278-1.377,2.163-3.146,2.163-5.211
		c0-4.031-3.343-7.374-7.374-7.374h-79.937V401.23C2840.176,397.1,2836.833,393.855,2832.802,393.855"/>
	<g>
		<g>
			<linearGradient id="SVGID_1_" gradientUnits="userSpaceOnUse" x1="281.0881" y1="493.0628" x2="1068.9857" y2="493.0628">
				<stop  offset="0" style="stop-color:#F9D802"/>
				<stop  offset="0.031" style="stop-color:#F8CE05"/>
				<stop  offset="0.1636" style="stop-color:#F4AA0F"/>
				<stop  offset="0.3027" style="stop-color:#F18B17"/>
				<stop  offset="0.4484" style="stop-color:#EE741E"/>
				<stop  offset="0.6034" style="stop-color:#EC6322"/>
				<stop  offset="0.7741" style="stop-color:#EB5925"/>
				<stop  offset="0.991" style="stop-color:#EB5626"/>
				<stop  offset="1" style="stop-color:#EB5626"/>
			</linearGradient>
			<path fill="url(#SVGID_1_)" d="M1050.816,765.044c-14.675-18.585-37.631-34.98-55.992-47.187
				c-39.605-26.332-75.746-45.115-115.13-59.69L693.917,145.452c-1.042-3.277-5.451-15.972-14.84-28.843
				c-15.089-20.685-35.31-31.617-58.478-31.617c-23.18,0-43.406,10.934-58.491,31.619c-9.377,12.858-13.781,25.542-14.829,28.838
				L282.282,874.671c-3.723,10.227,1.551,21.542,11.782,25.265c2.226,0.812,4.503,1.198,6.741,1.198
				c6.223-0.002,12.127-2.997,15.845-8.04c0.62-0.759,1.203-1.56,1.719-2.43c39.635-66.856,96.08-122.862,163.237-161.965
				c69.172-40.279,148.3-61.568,228.825-61.568c36.623,0,72.702,4.369,107.6,12.829l-0.008,0.03
				c10.592,2.841,20.994,5.941,30.952,9.225l33.871,93.762l0.075,0.204c0.136,0.364,13.706,36.655,23.518,61.419
				c11.511,29.053,32.592,48.349,59.359,54.337c5.585,1.249,11.3,1.858,17.042,1.858c21.547-0.001,43.433-8.584,59.984-24.11
				c16.849-15.805,25.894-35.95,26.157-58.259C1069.205,799.404,1062.584,779.947,1050.816,765.044z M461.766,694.624
				c-36.442,21.219-69.978,47.022-99.786,76.585l222.903-613.84c0.053-0.176,3.369-9.553,9.697-18.311
				c6.789-9.396,14.292-14.616,26.018-14.616c11.708,0,19.364,5.301,26.086,14.63c6.238,8.658,9.385,17.553,9.644,18.356
				l175.857,485.425c-39.422-9.973-80.266-15.15-121.755-15.15C622.943,627.702,536.955,650.843,461.766,694.624z M1015.833,847.912
				c-11.569,10.852-27.443,15.649-41.425,12.524c-13.826-3.093-24.647-13.594-31.294-30.369
				c-9.413-23.758-22.398-58.447-23.203-60.596l-22.099-61.174c24.841,11.352,49.176,25.129,75.17,42.411
				c15.926,10.589,35.645,24.565,46.872,38.784C1029.819,802.111,1036.971,828.082,1015.833,847.912z"/>
		</g>
		<g>
			<path fill="#FFFFFF" d="M979.56,222.521h18.3l78.864,174.302h-21.014l-20.269-45.736h-94.2l-20.52,45.736h-20.026L979.56,222.521
				z M1027.774,333.532l-39.307-88.265l-39.557,88.265H1027.774z"/>
			<path fill="#FFFFFF" d="M1085.087,324.382V223.76h19.524v99.391c0,37.331,19.782,58.344,52.91,58.344
				c31.896,0,52.166-19.281,52.166-57.113V223.76h19.532v99.14c0,50.44-28.925,76.644-72.191,76.644
				C1114.255,399.544,1085.087,373.34,1085.087,324.382z"/>
			<path fill="#FFFFFF" d="M1306.479,241.809h-58.101v-18.05h135.977v18.05h-58.094v155.014h-19.782V241.809z"/>
			<path fill="#FFFFFF" d="M1386.896,310.786v-0.494c0-47.712,35.849-89.496,88.515-89.496c52.66,0,88.014,41.283,88.014,89.002
				v0.494c0,47.719-35.849,89.496-88.508,89.496C1422.251,399.788,1386.896,358.505,1386.896,310.786z M1543.149,310.786v-0.494
				c0-39.307-28.675-71.446-68.232-71.446s-67.745,31.646-67.745,70.952v0.494c0,39.314,28.682,71.454,68.239,71.454
				S1543.149,350.1,1543.149,310.786z"/>
			<path fill="#FFFFFF" d="M1591.935,223.76h19.775l63.048,94.443l63.041-94.443h19.782v173.064h-19.532V256.644l-63.048,92.711
				h-0.988l-63.041-92.467v139.936h-19.038V223.76z"/>
			<path fill="#FFFFFF" d="M1855.863,222.521h18.293l78.871,174.302h-21.014l-20.276-45.736h-94.193l-20.52,45.736h-20.033
				L1855.863,222.521z M1904.076,333.532l-39.314-88.265l-39.557,88.265H1904.076z"/>
			<path fill="#FFFFFF" d="M1994.216,241.809h-58.101v-18.05h135.977v18.05h-58.101v155.014h-19.775V241.809z"/>
			<path fill="#FFFFFF" d="M2093.371,223.76h19.532v173.064h-19.532V223.76z"/>
			<path fill="#FFFFFF" d="M2141.562,310.786v-0.494c0-47.712,35.849-89.496,88.508-89.496s88.014,41.283,88.014,89.002v0.494
				c0,47.719-35.848,89.496-88.508,89.496C2176.917,399.788,2141.562,358.505,2141.562,310.786z M2297.815,310.786v-0.494
				c0-39.307-28.682-71.446-68.239-71.446c-39.557,0-67.738,31.646-67.738,70.952v0.494c0,39.314,28.674,71.454,68.232,71.454
				C2269.628,381.745,2297.815,350.1,2297.815,310.786z"/>
			<path fill="#FFFFFF" d="M2346.602,223.76h18.293l109.028,138.697V223.76h19.038v173.064h-15.572l-111.748-141.912v141.912
				h-19.038V223.76z"/>
			<path fill="#FFFFFF" d="M1201.346,658.639l-15.823-38.813h-73.179l-15.823,38.813h-38.813l74.167-174.302h35.104l74.174,174.302
				H1201.346z M1148.937,530.08l-22.997,56.118h45.987L1148.937,530.08z"/>
			<path fill="#FFFFFF" d="M1374.76,658.639l-83.811-110.016v110.016h-37.581V485.575h35.104l81.098,106.558V485.575h37.574v173.064
				H1374.76z"/>
			<path fill="#FFFFFF" d="M1522.386,589.663v68.976h-38.075V590.4l-66.506-104.825h44.505l41.283,69.47l42.035-69.47h43.266
				L1522.386,589.663z"/>
			<path fill="#FFFFFF" d="M1796.588,659.878h-33.128l-39.063-113.238l-39.063,113.238h-33.128l-59.089-174.302h40.796
				l35.849,117.19l38.813-117.684h32.634l38.82,117.684l35.849-117.19h39.801L1796.588,659.878z"/>
			<path fill="#FFFFFF" d="M1977.183,658.639v-69.47h-70.215v69.47h-38.075V485.575h38.075v68.482h70.215v-68.482h38.075v173.064
				H1977.183z"/>
			<path fill="#FFFFFF" d="M2045.279,658.639V485.575h130.535v33.872h-92.711v35.104h81.584v33.872h-81.584v36.343h93.949v33.872
				H2045.279z"/>
			<path fill="#FFFFFF" d="M2305.562,658.639l-37.08-55.38h-29.92v55.38h-38.068V485.575h79.115
				c40.789,0,65.268,21.508,65.268,57.113v0.494c0,27.937-15.085,45.493-37.087,53.648l42.278,61.81H2305.562z M2306.307,544.664
				c0-16.317-11.37-24.722-29.913-24.722h-37.832v49.695h38.569c18.544,0,29.176-9.888,29.176-24.479V544.664z"/>
			<path fill="#FFFFFF" d="M2367.35,658.639V485.575h130.535v33.872h-92.711v35.104h81.585v33.872h-81.585v36.343h93.949v33.872
				H2367.35z"/>
		</g>
		<g>
			<g>
				<path fill="#FFFFFF" d="M2530.913,213.362h-11.237v-3.994h27.072v3.994h-11.238v28.79h-4.597V213.362z"/>
				<path fill="#FFFFFF" d="M2553.063,209.368h4.829l7.523,17.739c0.743,1.811,1.625,4.412,1.625,4.412h0.093
					c0,0,0.882-2.601,1.625-4.412l7.522-17.739h4.83l2.646,32.784h-4.551l-1.625-20.663c-0.139-1.997-0.046-4.83-0.046-4.83h-0.093
					c0,0-0.975,3.019-1.765,4.83l-6.547,14.766h-4.086l-6.501-14.766c-0.743-1.765-1.765-4.923-1.765-4.923h-0.093
					c0,0,0.047,2.926-0.093,4.923l-1.579,20.663h-4.597L2553.063,209.368z"/>
			</g>
		</g>
	</g>
</g>
</svg>
